HIERARCHY
ROOT Hips
{
	OFFSET 0.000000 88.474243 0.000000
	CHANNELS 6 Xposition Yposition Zposition Zrotation Yrotation Xrotation 
	JOINT Hips_Spine
	{
		OFFSET 0.000000 0.000000 0.000000
		CHANNELS 3 Zrotation Yrotation Xrotation
		JOINT Spine
		{
			OFFSET 0.005100 8.711998 -0.691000
			CHANNELS 3 Zrotation Yrotation Xrotation
			JOINT Spine1
			{
				OFFSET -0.009200 8.660301 -1.275000
				CHANNELS 3 Zrotation Yrotation Xrotation
				JOINT Spine2
				{
					OFFSET 0.006300 9.852501 -1.857000
					CHANNELS 3 Zrotation Yrotation Xrotation
					JOINT Spine2_Neck
					{
						OFFSET 0.000000 0.000000 0.000000
						CHANNELS 3 Zrotation Yrotation Xrotation
						JOINT Neck
						{
							OFFSET 0.016300 11.420799 -0.263300
							CHANNELS 3 Zrotation Yrotation Xrotation
							End Site #name: Head
							{
								OFFSET -0.019200 9.262405 2.362500
							}
						}
					}
					JOINT Spine2_LeftShoulder
					{
						OFFSET 0.000000 0.000000 0.000000
						CHANNELS 3 Zrotation Yrotation Xrotation
						JOINT LeftShoulder
						{
							OFFSET 5.616900 6.732201 -0.345700
							CHANNELS 3 Zrotation Yrotation Xrotation
							JOINT LeftArm
							{
								OFFSET 10.664888 -0.183372 -2.440700
								CHANNELS 3 Zrotation Yrotation Xrotation
								JOINT LeftForeArm
								{
									OFFSET 27.459126 0.000000 0.000000
									CHANNELS 3 Zrotation Yrotation Xrotation
									End Site #name: LeftHand
									{
										OFFSET 21.306858 0.000000 0.000000
									}
								}
							}
						}
					}
					JOINT Spine2_RightShoulder
					{
						OFFSET 0.000000 0.000000 0.000000
						CHANNELS 3 Zrotation Yrotation Xrotation
						JOINT RightShoulder
						{
							OFFSET -5.580300 6.737503 -0.344400
							CHANNELS 3 Zrotation Yrotation Xrotation
							JOINT RightArm
							{
								OFFSET -10.679335 -0.188484 -2.383900
								CHANNELS 3 Zrotation Yrotation Xrotation
								JOINT RightForeArm
								{
									OFFSET -27.503529 0.000000 0.000000
									CHANNELS 3 Zrotation Yrotation Xrotation
									End Site #name: RightHand
									{
										OFFSET -21.306808 0.000000 0.000000
									}
								}
							}
						}
					}
				}
			}
		}
	}
	JOINT Hips_LeftUpLeg
	{
		OFFSET 0.000000 0.000000 0.000000
		CHANNELS 3 Zrotation Yrotation Xrotation
		JOINT LeftUpLeg
		{
			OFFSET 6.857700 -6.739601 0.312100
			CHANNELS 3 Zrotation Yrotation Xrotation
			JOINT LeftLeg
			{
				OFFSET -0.367590 -34.731552 -4.572400
				CHANNELS 3 Zrotation Yrotation Xrotation
				End Site #name: LeftFoot
				{
					OFFSET 0.367590 -34.656704 -6.067400
				}
			}
		}
	}
	JOINT Hips_RightUpLeg
	{
		OFFSET 0.000000 0.000000 0.000000
		CHANNELS 3 Zrotation Yrotation Xrotation
		JOINT RightUpLeg
		{
			OFFSET -6.876100 -6.733299 0.301000
			CHANNELS 3 Zrotation Yrotation Xrotation
			JOINT RightLeg
			{
				OFFSET 0.347353 -34.795158 -4.515900
				CHANNELS 3 Zrotation Yrotation Xrotation
				End Site #name: RightFoot
				{
					OFFSET -0.347353 -34.589367 -6.070300
				}
			}
		}
	}
}
MOTION
Frames: 14
Frame Time: 0.041667
0.029927 0.025109 0.065476 -0.719661 1.372824 -3.133773 0.000000 0.000000 0.000000 1.088600 1.765179 6.744799 -2.303013 1.130181 5.162675 0.000000 0.000000 0.000000 -1.816155 0.955448 2.757436 2.217550 -0.398136 -1.717777 -2.690497 0.575376 5.337395 -0.760177 2.577933 -0.020915 -72.695912 -14.597305 44.508573 0.230954 -53.710914 0.580093 -1.715298 0.980501 4.106261 3.918041 1.739099 3.064336 75.065424 -2.469419 48.030871 0.138974 41.051718 0.834859 0.000000 0.000000 0.000000 2.146283 6.551900 -13.512514 3.128065 7.141404 17.552970 0.000000 0.000000 0.000000 -4.174350 -10.323355 -11.154887 -2.701074 -5.939998 14.008405 
0.065626 0.101431 0.050859 -0.989394 1.833764 -3.054225 0.000000 0.000000 0.000000 -0.039204 1.060765 2.620523 -1.709062 0.631219 5.150449 0.000000 0.000000 0.000000 -1.776292 0.563369 4.872008 1.729458 0.590145 -0.980972 -1.861903 0.418603 5.664046 1.571371 4.569768 -0.744078 -69.872764 -10.118946 51.578373 0.100974 -47.541437 0.800696 -1.683687 0.422768 4.710791 4.426036 1.858930 1.755429 79.289812 2.145993 49.372351 0.342366 28.021958 0.542230 0.000000 0.000000 -0.000000 2.553892 7.179514 -11.883987 3.088262 8.257012 14.995358 0.000000 0.000000 0.000000 -3.731911 -9.581113 -10.489744 -2.662770 -5.218273 13.170205 
0.152449 0.118136 0.017955 -1.289988 2.304458 -3.218172 0.000000 0.000000 0.000000 -0.201627 1.018961 1.123163 -1.080471 0.525211 4.963063 0.000000 0.000000 0.000000 -1.411054 0.427671 4.613657 1.039821 0.653579 1.072752 -1.318650 0.364206 5.234245 -0.246934 6.239093 -0.932714 -68.136650 -8.686884 55.675010 0.242571 -41.454816 0.354359 -1.087449 0.361122 4.438611 4.727937 2.180196 1.120854 74.899534 1.585459 47.088989 0.333264 27.377138 0.315641 0.000000 0.000000 -0.000000 3.061514 9.021736 -11.388165 3.180899 8.518360 14.524043 0.000000 0.000000 0.000000 -3.590322 -9.080395 -10.385141 -2.690520 -5.519950 13.424473 
0.260066 0.114263 -0.028629 -1.483222 2.536036 -3.321539 0.000000 0.000000 0.000000 -0.216165 1.042058 1.161624 -1.110198 0.577325 5.148032 0.000000 0.000000 0.000000 -1.272140 0.400992 4.712974 0.500122 0.103871 3.617078 -1.181514 0.316944 5.229268 -0.500987 5.441753 -0.992600 -68.449424 -10.145016 55.997908 0.342466 -33.045398 0.208244 -0.913759 0.365245 4.629002 4.007395 3.935777 1.416622 73.370281 3.408513 48.209812 0.322240 30.411712 0.163994 0.000000 0.000000 -0.000000 3.290243 10.679937 -11.299923 3.460850 8.727217 14.655259 0.000000 0.000000 0.000000 -3.434938 -9.245734 -10.473981 -2.753679 -5.316394 13.640776 
0.387592 0.109367 -0.073834 -1.577005 2.752842 -3.353020 0.000000 0.000000 0.000000 -0.341722 1.063039 1.057497 -1.279907 0.568732 5.193816 0.000000 0.000000 0.000000 -1.424126 0.408673 4.825287 -0.010816 -0.115020 4.989078 -1.375153 0.266394 5.337834 -1.197914 4.437580 -0.898311 -69.128312 -11.657429 56.538688 0.400133 -30.460009 0.160127 -1.134710 0.410659 4.769563 3.363946 5.267237 1.746606 72.822352 4.291551 49.845539 0.303099 33.485726 0.132542 0.000000 0.000000 -0.000000 3.410679 11.718086 -11.306075 3.617368 8.977012 14.796046 0.000000 0.000000 0.000000 -3.367939 -9.377396 -10.530312 -2.715840 -5.005714 13.742701 
0.525557 0.103015 -0.115824 -1.635788 2.947557 -3.363599 0.000000 0.000000 0.000000 -0.468683 1.119254 0.953092 -1.456685 0.560932 5.266854 0.000000 0.000000 0.000000 -1.608379 0.423713 4.964509 -0.076985 -0.173138 5.352983 -1.592386 0.263714 5.524477 -1.680558 3.624277 -0.778202 -69.449026 -12.241407 56.877730 0.417398 -30.223326 0.147649 -1.362506 0.406206 4.859673 2.946681 6.010454 1.962011 71.835414 4.773093 50.607405 0.280652 35.022699 0.140790 0.000000 0.000000 -0.000000 3.437467 12.194708 -11.335731 3.699227 9.166203 14.934160 0.000000 0.000000 0.000000 -3.372842 -9.419653 -10.492018 -2.606943 -4.661789 13.663469 
0.665991 0.096354 -0.155192 -1.684572 3.087009 -3.365333 0.000000 0.000000 0.000000 -0.478060 1.194517 0.932979 -1.571220 0.577146 5.303153 0.000000 0.000000 0.000000 -1.734162 0.439630 5.049934 -0.070679 -0.245908 5.526288 -1.716432 0.271848 5.668131 -1.780110 3.255558 -0.709527 -69.382153 -12.259119 56.859787 0.405617 -30.830602 0.181308 -1.508607 0.406597 4.892919 2.740157 6.179045 2.023221 71.169743 5.137086 50.615808 0.272493 36.355914 0.184545 0.000000 0.000000 -0.000000 3.423140 12.461029 -11.366186 3.736266 9.279205 15.027709 0.000000 0.000000 0.000000 -3.408313 -9.443977 -10.433775 -2.482873 -4.358217 13.534024 
0.801561 0.089674 -0.192546 -1.745844 3.174879 -3.360006 0.000000 0.000000 0.000000 -0.443998 1.245187 0.950957 -1.635921 0.594109 5.347185 0.000000 0.000000 0.000000 -1.813706 0.466282 5.114319 -0.075384 -0.270034 5.584791 -1.785934 0.294213 5.778046 -1.810340 3.132361 -0.667805 -69.267934 -12.190147 56.892829 0.386325 -31.567054 0.209363 -1.589839 0.429425 4.945022 2.597168 6.292577 2.043341 70.814743 5.512229 50.110093 0.286289 38.201017 0.212516 0.000000 0.000000 -0.000000 3.401655 12.642420 -11.428526 3.779647 9.342196 15.139901 0.000000 0.000000 -0.000000 -3.435747 -9.455448 -10.395393 -2.376548 -4.127470 13.420039 
0.925130 0.083594 -0.228004 -1.825919 3.222335 -3.352125 0.000000 0.000000 0.000000 -0.427928 1.266826 0.932744 -1.674107 0.603552 5.404110 0.000000 0.000000 0.000000 -1.861896 0.490933 5.176084 -0.079882 -0.273822 5.580469 -1.834472 0.322883 5.869911 -1.795968 3.257182 -0.654081 -69.163949 -12.023402 56.920460 0.370143 -32.166214 0.222866 -1.638793 0.446509 4.993858 2.417398 6.549196 2.087235 70.414627 5.729829 49.608624 0.305573 41.799336 0.249067 0.000000 0.000000 -0.000000 3.390344 12.761458 -11.502466 3.819563 9.369662 15.255710 0.000000 0.000000 -0.000000 -3.442840 -9.457800 -10.383204 -2.302393 -3.978972 13.328670 
1.036568 0.078312 -0.261423 -1.908602 3.243620 -3.342456 0.000000 0.000000 0.000000 -0.421398 1.281239 0.909298 -1.702870 0.602932 5.441997 0.000000 0.000000 0.000000 -1.903218 0.498915 5.214127 -0.109610 -0.280588 5.545434 -1.874291 0.342812 5.911930 -1.737662 3.502001 -0.659182 -69.106292 -11.864949 56.939098 0.358001 -32.700777 0.233767 -1.682840 0.456994 5.022316 2.198140 6.856685 2.136378 69.826348 5.794903 49.127826 0.330730 47.316290 0.300988 0.000000 0.000000 -0.000000 3.387547 12.826755 -11.563538 3.856808 9.377674 15.338973 0.000000 0.000000 -0.000000 -3.437415 -9.452787 -10.380104 -2.257064 -3.898654 13.258744 
1.135800 0.073717 -0.292986 -1.986621 3.259293 -3.335579 0.000000 0.000000 0.000000 -0.411041 1.287334 0.899298 -1.733778 0.598351 5.448795 0.000000 0.000000 0.000000 -1.949946 0.499052 5.220156 -0.137908 -0.273489 5.506665 -1.916100 0.354368 5.909393 -1.679616 3.766033 -0.674082 -69.111052 -11.724479 56.912812 0.350553 -33.238993 0.243444 -1.732129 0.463941 5.023655 2.038279 7.083163 2.193277 69.127037 5.811605 48.665166 0.371086 53.641046 0.368771 0.000000 0.000000 -0.000000 3.391454 12.853173 -11.610785 3.886332 9.378984 15.387503 0.000000 0.000000 -0.000000 -3.423841 -9.442169 -10.382010 -2.230392 -3.858881 13.205732 
1.222677 0.069805 -0.322993 -2.056161 3.287063 -3.334001 0.000000 0.000000 0.000000 -0.391622 1.291089 0.910159 -1.766768 0.594024 5.426946 0.000000 0.000000 0.000000 -1.997882 0.501399 5.193142 -0.163928 -0.266991 5.469069 -1.961085 0.358645 5.873511 -1.633211 3.990426 -0.690903 -69.149719 -11.630641 56.853259 0.346580 -33.762420 0.251308 -1.782112 0.469883 4.996837 1.912890 7.274144 2.247347 68.430862 5.770304 48.246128 0.430491 60.004934 0.457262 0.000000 0.000000 -0.000000 3.397853 12.860749 -11.627751 3.905569 9.374122 15.386493 0.000000 0.000000 -0.000000 -3.407023 -9.430997 -10.374764 -2.217573 -3.848275 13.152191 
1.297002 0.066135 -0.351571 -2.115952 3.322593 -3.335474 0.000000 0.000000 0.000000 -0.365270 1.293837 0.945371 -1.798129 0.590745 5.391772 0.000000 0.000000 0.000000 -2.043747 0.505427 5.153408 -0.189441 -0.263961 5.458142 -2.002951 0.359779 5.822423 -1.603187 4.138381 -0.703742 -69.214726 -11.551999 56.807895 0.347179 -34.266890 0.257264 -1.827445 0.475894 4.963458 1.814043 7.427811 2.291802 67.830832 5.658204 47.885372 0.515973 65.739976 0.568475 0.000000 0.000000 -0.000000 3.410466 12.856608 -11.632209 3.915476 9.369041 15.363668 0.000000 0.000000 -0.000000 -3.390514 -9.424548 -10.358635 -2.210094 -3.848179 13.101912 
1.359623 0.062613 -0.379186 -2.168309 3.355717 -3.339982 0.000000 0.000000 0.000000 -0.332086 1.298170 1.003511 -1.827548 0.590277 5.361133 0.000000 0.000000 0.000000 -2.084293 0.510738 5.116753 -0.210840 -0.263589 5.463886 -2.040335 0.361905 5.778886 -1.590448 4.242404 -0.710362 -69.289498 -11.481156 56.803953 0.349124 -34.726079 0.260264 -1.866199 0.482659 4.934247 1.732219 7.554589 2.327286 67.352649 5.492888 47.549300 0.606294 69.504584 0.675334 0.000000 0.000000 -0.000000 3.425407 12.853247 -11.623579 3.919187 9.354893 15.332389 0.000000 0.000000 -0.000000 -3.376134 -9.422479 -10.334946 -2.208674 -3.853588 13.052456 
